<svg xmlns="http://www.w3.org/2000/svg" width="256" height="256" viewBox="0 0 100 100">
    <style>
        @media (prefers-color-scheme: dark) {
            rect {
                fill: #f2f2f2;
            }
            path {
                fill: #404040;
            }
        }
    </style>
    <rect width="100" height="100" rx="20" fill="#404040"></rect>
    <path fill="#f2f2f2" d="M24.66 76.27L24.66 76.27Q24.66 72.66 26.56 68.65Q28.47 64.65 31.25 60.60Q34.03 56.54 37.06 52.83Q40.09 49.12 42.43 46.19L42.43 46.19Q42.43 44.63 41.60 42.72Q40.77 40.82 39.50 38.82Q38.23 36.82 36.77 34.72Q35.30 32.62 34.03 30.62Q32.76 28.61 31.93 26.71Q31.10 24.80 31.10 23.05L31.10 23.05Q31.10 21.88 31.45 21.29Q31.79 20.70 33.06 20.70L33.06 20.70Q33.54 20.80 34.47 21.97Q35.40 23.14 36.52 24.90Q37.65 26.66 38.87 28.71Q40.09 30.76 41.16 32.67Q42.24 34.57 43.12 35.99Q43.99 37.40 44.38 37.89L44.38 37.89Q45.36 39.65 46.39 40.43Q47.41 41.21 49.32 40.28Q51.22 39.36 54.64 36.43Q58.06 33.50 63.72 27.83L63.72 27.83Q64.40 27.25 66.16 26.17Q67.92 25.10 69.82 24.46Q71.73 23.83 73.39 24.02Q75.05 24.22 75.34 26.17L75.34 26.17Q72.22 28.13 68.75 30.57Q65.28 33.01 61.91 35.79Q58.54 38.57 55.42 41.50Q52.29 44.43 50.05 47.27L50.05 47.27Q50.93 49.71 53.03 52.78Q55.13 55.86 57.52 58.98Q59.91 62.11 62.16 64.99Q64.40 67.87 65.53 69.92Q66.65 71.97 66.26 72.90Q65.87 73.83 62.94 73.05L62.94 73.05Q60.40 71.09 58.15 68.46Q55.91 65.82 53.86 63.04Q51.81 60.25 49.66 57.57Q47.51 54.88 45.26 52.83L45.26 52.83L44.78 52.83Q44.19 52.83 43.21 53.76Q42.24 54.69 41.11 56.05Q39.99 57.42 38.77 59.13Q37.55 60.84 36.38 62.55Q35.21 64.26 34.42 65.63L34.42 65.63Q33.45 66.99 33.06 67.77L33.06 67.77Q32.47 68.46 31.69 70.26Q30.91 72.07 30.03 74.02Q29.15 75.98 28.17 77.54Q27.20 79.10 26.51 79.30L26.51 79.30Q25.34 79.30 25 78.47Q24.66 77.64 24.66 76.27Z"></path>
</svg>