<svg xmlns="http://www.w3.org/2000/svg" version="1.1" aria-labelledby="title" role="img">
    <title>Favicon</title>
    <style>
        @media (prefers-color-scheme: dark) {
            .background {
                fill: hsl(0 0% 87%);
            }
            .text {
                fill: hsl(0 0% 25%);
            }
        }
    </style>
    <g><path class="background" fill="hsl(0 0% 25%)" d="M -0.5,-0.5 C 10.1667,-0.5 20.8333,-0.5 31.5,-0.5C 31.5,10.1667 31.5,20.8333 31.5,31.5C 20.8333,31.5 10.1667,31.5 -0.5,31.5C -0.5,20.8333 -0.5,10.1667 -0.5,-0.5 Z"/>
    </g>
    <g><path class="text" fill="hsl(0 0% 95%)" d="M 7.5,5.5 C 8.97782,5.23798 10.3112,5.57131 11.5,6.5C 12.8029,8.96762 14.3029,11.301 16,13.5C 17.1667,11.1667 18.3333,8.83333 19.5,6.5C 20.8333,5.16667 22.1667,5.16667 23.5,6.5C 21.5,9.5 19.5,12.5 17.5,15.5C 19.5,18.5 21.5,21.5 23.5,24.5C 22.635,25.5827 21.635,25.7494 20.5,25C 18.7888,22.4112 16.9555,19.9112 15,17.5C 13.3742,19.9171 11.8742,22.4171 10.5,25C 9.36495,25.7494 8.36495,25.5827 7.5,24.5C 9.43691,21.624 11.1036,18.624 12.5,15.5C 10.8249,12.1498 9.15825,8.81649 7.5,5.5 Z"/>
    </g>
</svg>