<?xml version="1.0" standalone="no"?>
<!DOCTYPE svg PUBLIC "-//W3C//DTD SVG 20010904//EN"
 "http://www.w3.org/TR/2001/REC-SVG-20010904/DTD/svg10.dtd">
<svg version="1.0" xmlns="http://www.w3.org/2000/svg"
 width="700.000000pt" height="700.000000pt" viewBox="0 0 700.000000 700.000000"
 preserveAspectRatio="xMidYMid meet">
<metadata>
Created by potrace 1.14, written by Peter Selinger 2001-2017
</metadata>
<g transform="translate(0.000000,700.000000) scale(0.100000,-0.100000)"
fill="#000000" stroke="none">
<path d="M1195 6985 c-272 -42 -488 -141 -707 -322 -246 -204 -423 -525 -473
-858 -22 -151 -22 -4459 0 -4610 22 -143 58 -263 119 -391 197 -411 526 -669
996 -781 71 -16 208 -18 2320 -20 2451 -4 2340 -6 2546 53 104 30 285 114 375
174 335 225 555 570 614 965 22 151 22 4459 0 4610 -22 143 -58 264 -120 392
-205 428 -595 718 -1060 788 -87 13 -393 15 -2315 14 -1725 -1 -2233 -4 -2295
-14z m1185 -1493 c88 -90 233 -317 540 -847 187 -323 295 -469 365 -495 128
-48 393 141 945 675 135 130 277 258 315 284 107 73 230 136 335 172 79 27
111 33 190 33 78 1 101 -3 128 -19 31 -19 73 -86 72 -116 -1 -8 -40 -38 -88
-68 -134 -84 -463 -313 -602 -419 -381 -291 -802 -673 -1003 -910 l-79 -92 59
-123 c92 -189 232 -390 654 -937 368 -478 451 -620 425 -724 -9 -36 -62 -49
-146 -35 -85 14 -120 38 -263 178 -138 135 -255 275 -502 601 -229 303 -326
421 -449 548 -88 91 -103 102 -134 102 -48 0 -90 -29 -178 -123 -136 -147
-338 -425 -559 -772 -142 -222 -157 -249 -245 -450 -164 -372 -260 -516 -334
-501 -68 14 -96 76 -96 214 0 176 55 372 166 593 172 344 372 633 832 1203
268 332 257 310 227 430 -32 127 -135 309 -379 676 -255 382 -342 537 -377
679 -38 152 -17 273 52 292 56 16 72 10 129 -49z"/>
</g>
</svg>
